HIERARCHY
ROOT SpineBase
{
  OFFSET 0.000000 0.000000 0.000000
  CHANNELS 6 Xposition Yposition Zposition Zrotation Xrotation Yrotation
  JOINT SpineMid
  {
    OFFSET -0.000000 24.276581 0.000000
    CHANNELS 3 Zrotation Xrotation Yrotation
    JOINT SpineShoulder
    {
      OFFSET 0.008690 17.959655 -0.198598
      CHANNELS 3 Zrotation Xrotation Yrotation
      JOINT Neck
      {
        OFFSET 0.007036 5.920362 -0.270385
        CHANNELS 3 Zrotation Xrotation Yrotation
        JOINT Head
        {
          OFFSET 5.135214 9.462482 -0.644963
          CHANNELS 3 Zrotation Xrotation Yrotation
          End Site
          {
            OFFSET 0 0 0
          }
        }
      }
      JOINT ShoulderLeft
      {
        OFFSET -11.975450 -1.117276 -8.071439
        CHANNELS 3 Zrotation Xrotation Yrotation
        JOINT ElbowLeft
        {
          OFFSET -3.219662 -19.526812 -6.020379
          CHANNELS 3 Zrotation Xrotation Yrotation
          JOINT WristLeft
          {
            OFFSET 12.777370 -5.588684 -12.942206
            CHANNELS 3 Zrotation Xrotation Yrotation
            JOINT HandLeft
            {
              OFFSET 9.426715 5.417613 -5.307520
              CHANNELS 3 Zrotation Xrotation Yrotation
              JOINT HandTipLeft
              {
                OFFSET 5.720311 3.346982 -1.931373
                CHANNELS 3 Zrotation Xrotation Yrotation
                End Site
                {
                  OFFSET 0 0 0
                }
              }
              JOINT ThumbLeft
              {
                OFFSET 3.155040 -1.105326 -0.667112
                CHANNELS 3 Zrotation Xrotation Yrotation
                End Site
                {
                  OFFSET 0 0 0
                }
              }
            }
          }
        }
      }
      JOINT ShoulderRight
      {
        OFFSET 13.418901 0.075028 10.172537
        CHANNELS 3 Zrotation Xrotation Yrotation
        JOINT ElbowRight
        {
          OFFSET 10.177117 -12.160999 -1.970502
          CHANNELS 3 Zrotation Xrotation Yrotation
          JOINT WristRight
          {
            OFFSET 8.401463 -7.464900 -17.105849
            CHANNELS 3 Zrotation Xrotation Yrotation
            JOINT HandRight
            {
              OFFSET 0.712277 -0.270699 -12.662131
              CHANNELS 3 Zrotation Xrotation Yrotation
              JOINT HandTipRight
              {
                OFFSET 0.120490 -3.004768 -2.371025
                CHANNELS 3 Zrotation Xrotation Yrotation
                End Site
                {
                  OFFSET 0 0 0
                }
              }
              JOINT ThumbRight
              {
                OFFSET 1.295212 0.178564 -3.076677
                CHANNELS 3 Zrotation Xrotation Yrotation
                End Site
                {
                  OFFSET 0 0 0
                }
              }
            }
          }
        }
      }
    }
  }
  JOINT HipLeft
  {
    OFFSET -4.445911 0.985016 -6.681053
    CHANNELS 3 Zrotation Xrotation Yrotation
    JOINT KneeLeft
    {
      OFFSET 26.786700 7.199406 -18.184332
      CHANNELS 3 Zrotation Xrotation Yrotation
      JOINT AnkleLeft
      {
        OFFSET 6.131965 -36.114125 6.201945
        CHANNELS 3 Zrotation Xrotation Yrotation
        JOINT FootLeft
        {
          OFFSET 5.698489 -4.786191 -7.514943
          CHANNELS 3 Zrotation Xrotation Yrotation
          End Site
          {
            OFFSET 0 0 0
          }
        }
      }
    }
  }
  JOINT HipRight
  {
    OFFSET 4.362313 0.106479 -0.259977
    CHANNELS 3 Zrotation Xrotation Yrotation
    JOINT KneeRight
    {
      OFFSET 27.990715 12.500567 -13.694662
      CHANNELS 3 Zrotation Xrotation Yrotation
      JOINT AnkleRight
      {
        OFFSET 5.873267 -35.021947 10.111981
        CHANNELS 3 Zrotation Xrotation Yrotation
        JOINT FootRight
        {
          OFFSET 0.193583 -7.743933 -7.655599
          CHANNELS 3 Zrotation Xrotation Yrotation
          End Site
          {
            OFFSET 0 0 0
          }
        }
      }
    }
  }
}
MOTION
Frames: 6
Frame Time: 0.033333
5.148069 35.175986 394.410003 0.000000 0.000000 -36.091544 -0.000000 0.000000 36.091544 -0.000000 0.000000 0.000000 -0.000000 0.000000 0.000000 0.000000 0.000000 0.000000 -0.000000 0.000000 0.000000 -0.000000 0.000000 0.000000 -0.000000 0.000000 0.000000 -0.000000 0.000000 0.000000 0.000000 0.000000 0.000000 0.000000 0.000000 0.000000 -0.000000 0.000000 0.000000 -0.000000 0.000000 0.000000 -0.000000 0.000000 0.000000 -0.000000 0.000000 0.000000 0.000000 0.000000 0.000000 0.000000 0.000000 0.000000 -0.000000 0.000000 36.091544 -0.000000 0.000000 0.000000 -0.000000 0.000000 0.000000 0.000000 0.000000 0.000000 -0.000000 0.000000 36.091544 -0.000000 0.000000 0.000000 -0.000000 0.000000 0.000000 0.000000 0.000000 0.000000
5.451875 35.191414 393.867922 0.537277 1.347478 -35.896078 0.354819 -1.406570 35.894115 -0.000000 0.000000 0.000000 -0.000000 0.000000 0.000000 0.000000 0.000000 0.000000 -0.000000 0.000000 0.000000 0.675116 0.598974 -0.192605 -0.673136 -0.601199 0.185544 -0.000000 0.000000 0.000000 0.000000 0.000000 0.000000 0.000000 0.000000 0.000000 1.645254 13.618182 10.622808 -6.179442 -19.080256 -18.282569 -0.158271 6.486531 10.039623 -1.778657 0.825264 -2.053497 0.000000 0.000000 0.000000 0.000000 0.000000 0.000000 0.354819 -1.406570 35.894115 -0.000000 0.000000 0.000000 -1.943427 -3.785453 -1.639196 0.000000 0.000000 0.000000 0.128035 -0.993019 34.900383 -0.050678 -0.468897 0.988776 -0.724985 1.749701 0.760172 0.000000 0.000000 0.000000
5.694993 35.192933 393.520386 0.945757 2.269280 -35.687592 0.555668 -2.394793 35.680474 -0.000000 0.000000 0.000000 -1.095319 0.403203 -0.288194 0.000000 0.000000 0.000000 -0.000000 0.000000 0.000000 1.340625 1.183058 -0.393725 -1.332753 -1.191920 0.366019 -0.000000 0.000000 0.000000 0.000000 0.000000 0.000000 0.000000 0.000000 0.000000 1.243005 22.650632 17.861979 -14.737690 -31.108034 -34.480268 -0.982290 11.321049 20.477948 -3.063722 3.383297 -5.250627 0.000000 0.000000 0.000000 0.000000 0.000000 0.000000 0.555668 -2.394793 35.680474 -0.000000 0.000000 0.000000 -3.885347 -7.368699 -3.415147 0.000000 0.000000 0.000000 0.182565 -1.691492 34.002529 -0.084290 -0.791552 1.664061 -1.256566 3.116908 1.319225 0.000000 0.000000 0.000000
5.877423 35.180545 393.367395 1.222686 2.758448 -35.454061 1.443541 -3.473223 35.491959 -0.382664 0.907568 -0.001640 -1.458917 0.572403 -0.400168 0.000000 0.000000 0.000000 -0.975777 -0.282886 0.344864 2.983525 2.015596 -0.961533 -2.517837 -2.379297 1.030287 0.158968 0.866568 -1.183055 0.000000 0.000000 0.000000 0.000000 0.000000 0.000000 0.323483 27.862374 22.399734 -22.374805 -37.479841 -47.166866 -1.793745 13.784606 30.376801 -3.361157 8.078116 -9.111365 0.000000 0.000000 0.000000 0.000000 0.000000 0.000000 0.603969 -2.956076 35.440206 -0.000000 0.000000 0.000000 -5.754746 -10.628754 -5.264593 0.000000 0.000000 0.000000 0.162413 -2.095764 33.407345 -0.951404 -0.534606 1.837790 -0.778268 3.684378 1.836826 0.000000 0.000000 0.000000
5.999166 35.154250 393.408949 1.366178 2.811041 -35.189282 1.566203 -3.819415 35.238806 -0.443376 1.212241 -0.000799 -1.701349 0.719566 -0.492039 0.000000 0.000000 0.000000 -1.312528 -0.565503 0.491270 3.975893 2.831965 -1.346764 -3.110121 -3.009628 1.337702 -0.048835 1.203752 -1.884703 0.000000 0.000000 0.000000 0.000000 0.000000 0.000000 -0.427587 30.369561 24.789825 -26.866468 -40.325504 -54.966691 -1.925425 13.692577 37.859193 -2.378268 14.916683 -12.268441 0.000000 0.000000 0.000000 0.000000 0.000000 0.000000 0.503164 -3.084472 35.169307 -0.000000 0.000000 0.000000 -7.469760 -13.466806 -7.109809 0.000000 0.000000 0.000000 0.068783 -2.205319 33.121714 -1.095815 -0.507696 1.819577 -0.806169 4.352374 2.036386 0.000000 0.000000 0.000000
6.060221 35.114046 393.645047 1.375204 2.425175 -34.893337 1.515726 -3.751208 34.947991 -0.470762 1.518012 0.000296 -1.823540 0.844512 -0.564583 0.000000 0.000000 0.000000 -1.654201 -0.941677 0.651817 4.967237 3.716506 -1.768781 -3.562254 -3.544572 1.633292 -0.389120 1.553450 -2.725752 0.000000 0.000000 0.000000 0.000000 0.000000 0.000000 -0.777847 30.800008 25.331037 -27.210469 -41.005881 -57.245352 -1.350486 11.441548 40.971290 -0.704914 23.305207 -13.026010 0.000000 0.000000 0.000000 0.000000 0.000000 0.000000 0.615501 -2.046632 35.219842 -0.711448 -0.390246 -0.336764 -8.944856 -15.813466 -8.866737 0.000000 0.000000 0.000000 -0.094422 -2.017830 33.150505 -1.153322 -0.368139 1.480554 -0.719382 4.780247 2.034923 0.000000 0.000000 0.000000
